<?xml version="1.0" encoding="utf-8"?>
<svg viewBox="0 0 16 16" xmlns="http://www.w3.org/2000/svg">
  <path d="M 10.492 1 C 11.044 1 11.492 1.448 11.492 2 L 11.492 5 C 11.492 5.552 11.044 6 10.492 6 L 9.492 6 L 9.492 7 L 11.893 7 C 11.938 7.446 12.309 7.793 12.759 7.793 C 13 7.793 13.219 7.693 13.376 7.532 C 13.38 7.539 13.384 7.546 13.387 7.553 L 14.387 9.553 C 14.547 9.873 14.524 10.254 14.327 10.552 C 13.903 11.195 12.941 11.137 12.597 10.448 L 11.875 9 L 10.492 9 L 10.492 9.999 C 10.489 10.337 10.311 10.65 10.023 10.826 L 10.998 12.777 L 13.176 12.052 C 13.527 11.926 13.919 12.007 14.193 12.26 C 14.757 12.784 14.544 13.722 13.808 13.949 L 10.808 14.949 C 10.336 15.106 9.82 14.892 9.598 14.447 L 8.103 11.461 L 3.047 14.831 C 2.75 15.029 2.369 15.054 2.049 14.896 C 1.359 14.555 1.297 13.594 1.937 13.167 L 6.516 10.115 C 6.511 10.075 6.492 10.04 6.492 9.999 L 6.492 9.389 L 4.808 9.949 C 4.284 10.124 3.717 9.84 3.543 9.316 L 2.543 6.316 C 2.43 5.977 2.507 5.604 2.744 5.336 C 3.256 4.761 4.198 4.954 4.441 5.685 L 5.125 7.736 L 7.176 7.052 C 7.277 7.014 7.384 6.993 7.492 6.99 L 7.492 6 L 6.492 6 C 5.94 6 5.492 5.552 5.492 5 L 5.492 2 C 5.492 1.448 5.94 1 6.492 1 Z M 6.492 5 L 7.492 5 L 7.492 3 L 6.492 3 Z" fill="#8da5f3" transform="matrix(1, 0, 0, 1, 7.105427357601002e-15, 0)"/>
  <rect x="12.03" y="1.468" width="1.276" height="4.862" style="stroke: rgb(0, 0, 0); stroke-width: 0px; fill: rgb(243, 141, 141);" transform="matrix(1, 0, 0.011951001361012459, 1, 0.029310002923018885, -0.39084601402282715)" rx="0.26" ry="0.26"/>
  <ellipse style="stroke-width: 0px; stroke: rgb(141, 165, 243); fill: rgb(243, 141, 141);" cx="12.753" cy="6.897" rx="0.706" ry="0.715" transform="matrix(1, 0, 0, 1, 7.105427357601002e-15, 0)"/>
</svg>